<svg xmlns="http://www.w3.org/2000/svg" width="1200" height="700" viewBox="0 0 1200 700" role="img" aria-label="A heartfelt thank you">
  <defs>
    <linearGradient id="g1" x1="0" x2="1" y1="0" y2="1">
      <stop offset="0%" stop-color="#fef2f2"/>
      <stop offset="100%" stop-color="#fee2e2"/>
    </linearGradient>
  </defs>
  <rect width="1200" height="700" fill="url(#g1)"/>
  <circle cx="930" cy="150" r="90" fill="#ef4444" opacity="0.18"/>
  <circle cx="250" cy="560" r="120" fill="#991b1b" opacity="0.10"/>
  <path d="M600 170c-70 0-125 56-125 125 0 109 125 205 125 205s125-96 125-205c0-69-55-125-125-125z" fill="#b91c1c"/>
  <path d="M600 215c-44 0-80 36-80 80 0 55 80 129 80 129s80-74 80-129c0-44-36-80-80-80z" fill="#ffffff" opacity="0.16"/>
  <text x="600" y="575" text-anchor="middle" font-family="Arial, sans-serif" font-size="54" font-weight="700" fill="#7f1d1d">A Heartfelt Thank You</text>
  <text x="600" y="630" text-anchor="middle" font-family="Arial, sans-serif" font-size="28" fill="#7f1d1d">Your donation gives hope</text>
</svg>